<mxfile host="app.diagrams.net" modified="2024-02-11T10:22:39.291Z" agent="Mozilla/5.0 (X11; Linux x86_64) AppleWebKit/537.36 (KHTML, like Gecko) Chrome/120.0.0.0 Safari/537.36" version="23.1.2" etag="vyvolStPOCRfzDj6Tmws" type="github">
  <diagram name="Page-1" id="ksizqdsHcVNpUrc1TQrx">
    <mxGraphModel>
      <root>
        <mxCell id="0" />
        <mxCell id="1" parent="0" />
      </root>
    </mxGraphModel>
  </diagram>
</mxfile>
